<svg width="48" height="47" viewBox="0 0 48 47" fill="none" xmlns="http://www.w3.org/2000/svg">
<rect width="48" height="47" rx="23.5" fill="#FFEFEB"/>
<g filter="url(#filter0_i_3_456)">
<path d="M25.1201 15.1829L28.9043 12.2684L30.5833 13.1241L30.3596 18.0253L25.1201 15.1829ZM21.8972 26.7615L29.3609 18.9892L24.1024 16.1285L21.8972 26.7615ZM34.4659 15.1029L31.7587 13.7232L31.5333 18.662L36 21.0851L34.4659 15.1029ZM31.0203 19.7457L23.6133 26.8408L30.3097 23.6353C31.5321 26.8244 30.84 30.6875 27.8626 33.1802C22.8597 37.3687 15.1294 34.5726 13.9815 28.1592C13.1686 23.6171 16.0856 19.6528 20.0419 18.5159L21.1782 25.3959L22.7573 15.3604L18.8779 13.1587L19.651 16.7166C14.7812 18.0554 11.1696 22.9097 12.1661 28.4776C13.5623 36.2779 22.9642 39.6786 29.049 34.5843C32.6693 31.5533 33.5136 26.8556 32.0285 22.9773L34.93 21.8667L31.0203 19.7457ZM27.7228 11.6662L24.4534 10L19.5579 12.1655L23.9681 14.558L27.7228 11.6662Z" fill="#FFE06A"/>
</g>
<defs>
<filter id="filter0_i_3_456" x="12" y="10" width="24" height="31" filterUnits="userSpaceOnUse" color-interpolation-filters="sRGB">
<feFlood flood-opacity="0" result="BackgroundImageFix"/>
<feBlend mode="normal" in="SourceGraphic" in2="BackgroundImageFix" result="shape"/>
<feColorMatrix in="SourceAlpha" type="matrix" values="0 0 0 0 0 0 0 0 0 0 0 0 0 0 0 0 0 0 127 0" result="hardAlpha"/>
<feOffset dy="4"/>
<feGaussianBlur stdDeviation="2"/>
<feComposite in2="hardAlpha" operator="arithmetic" k2="-1" k3="1"/>
<feColorMatrix type="matrix" values="0 0 0 0 0.695264 0 0 0 0 0.550612 0 0 0 0 0 0 0 0 0.25 0"/>
<feBlend mode="normal" in2="shape" result="effect1_innerShadow_3_456"/>
</filter>
</defs>
</svg>
